<svg width="14" height="14" viewBox="0 0 14 14" fill="none" xmlns="http://www.w3.org/2000/svg">
<path id="Star 4" opacity="0.4" d="M6.25074 13.2753C6.66852 13.6794 7.33148 13.6794 7.74926 13.2753C8.04587 12.9884 8.48026 12.8961 8.86791 13.0375C9.41393 13.2367 10.0196 12.9671 10.2369 12.428C10.3912 12.0453 10.7504 11.7843 11.1621 11.7558C11.742 11.7157 12.1856 11.223 12.1648 10.6422C12.1501 10.2298 12.3721 9.8452 12.7366 9.65176C13.25 9.3793 13.4549 8.74879 13.1997 8.22659C13.0185 7.85584 13.0649 7.41418 13.3192 7.0892C13.6774 6.63147 13.6081 5.97215 13.1626 5.5989C12.8463 5.3339 12.709 4.91154 12.8092 4.51122C12.9503 3.94737 12.6188 3.37324 12.0599 3.21348C11.6632 3.10005 11.366 2.77002 11.2947 2.36358C11.1942 1.7911 10.6579 1.40143 10.0824 1.48277C9.67377 1.54053 9.26807 1.3599 9.03759 1.01761C8.71296 0.535492 8.06449 0.397655 7.57183 0.706052C7.22205 0.925004 6.77795 0.925004 6.42817 0.706052C5.93551 0.397656 5.28704 0.535492 4.96241 1.01761C4.73193 1.3599 4.32623 1.54053 3.91763 1.48277C3.34212 1.40143 2.80578 1.7911 2.70531 2.36358C2.63398 2.77002 2.33682 3.10005 1.94006 3.21348C1.38122 3.37324 1.04974 3.94737 1.1908 4.51122C1.29095 4.91154 1.15372 5.3339 0.837395 5.5989C0.391852 5.97215 0.322554 6.63147 0.680758 7.0892C0.935073 7.41418 0.981493 7.85584 0.800302 8.22659C0.545093 8.74879 0.749957 9.3793 1.26337 9.65176C1.62788 9.8452 1.84992 10.2298 1.83519 10.6422C1.81445 11.223 2.25805 11.7157 2.83789 11.7558C3.24957 11.7843 3.60885 12.0453 3.76313 12.428C3.98043 12.9671 4.58607 13.2367 5.13208 13.0375C5.51974 12.8961 5.95413 12.9884 6.25074 13.2753Z" fill="#F83758"/>
</svg>
