<svg width="7" height="7" viewBox="0 0 7 7" fill="none" xmlns="http://www.w3.org/2000/svg">
<path id="Star 5" opacity="0.4" d="M3.12537 6.63765C3.33426 6.83969 3.66574 6.83969 3.87463 6.63765C4.02293 6.4942 4.24013 6.44804 4.43396 6.51876C4.70697 6.61837 5.00979 6.48355 5.11844 6.21401C5.19558 6.02265 5.37522 5.89213 5.58105 5.8779C5.87098 5.85786 6.09278 5.61152 6.0824 5.32109C6.07504 5.1149 6.18606 4.9226 6.36832 4.82588C6.62502 4.68965 6.72745 4.3744 6.59985 4.11329C6.50925 3.92792 6.53246 3.70709 6.65962 3.5446C6.83872 3.31574 6.80407 2.98608 6.5813 2.79945C6.42314 2.66695 6.35452 2.45577 6.4046 2.25561C6.47513 1.97369 6.30939 1.68662 6.02997 1.60674C5.83159 1.55002 5.68301 1.38501 5.64735 1.18179C5.59711 0.89555 5.32894 0.700713 5.04118 0.741387C4.83689 0.770265 4.63404 0.67995 4.5188 0.508805C4.35648 0.267746 4.03224 0.198828 3.78591 0.353026C3.61102 0.462502 3.38898 0.462502 3.21409 0.353026C2.96776 0.198828 2.64352 0.267746 2.4812 0.508805C2.36596 0.67995 2.16311 0.770265 1.95882 0.741387C1.67106 0.700713 1.40289 0.89555 1.35266 1.18179C1.31699 1.38501 1.16841 1.55002 0.970029 1.60674C0.69061 1.68662 0.524871 1.97369 0.595401 2.25561C0.645476 2.45577 0.576859 2.66695 0.418698 2.79945C0.195926 2.98608 0.161277 3.31574 0.340379 3.5446C0.467536 3.70709 0.490747 3.92792 0.400151 4.11329C0.272547 4.3744 0.374979 4.68965 0.631684 4.82588C0.813938 4.9226 0.924961 5.1149 0.917597 5.32109C0.907223 5.61152 1.12902 5.85786 1.41895 5.8779C1.62478 5.89213 1.80442 6.02265 1.88156 6.21401C1.99021 6.48355 2.29303 6.61837 2.56604 6.51876C2.75987 6.44804 2.97707 6.4942 3.12537 6.63765Z" fill="#F83758"/>
</svg>
