<svg width="14" height="14" viewBox="0 0 14 14" fill="none" xmlns="http://www.w3.org/2000/svg">
<path d="M13.6667 2.79995L10.6 0.199951L9.73334 1.19995L12.8 3.79995L13.6667 2.79995ZM4.26668 1.26662L3.40001 0.266618L0.333344 2.79995L1.20001 3.79995L4.26668 1.26662ZM7.33334 4.33328H6.33334V8.33328L9.46668 10.2666L10 9.46662L7.33334 7.86662V4.33328ZM7.00001 1.66662C3.66668 1.66662 1.00001 4.33328 1.00001 7.66662C1.00001 11 3.66668 13.6666 7.00001 13.6666C10.3333 13.6666 13 11 13 7.66662C13 4.33328 10.3333 1.66662 7.00001 1.66662ZM7.00001 12.3333C4.40001 12.3333 2.33334 10.2666 2.33334 7.66662C2.33334 5.06662 4.40001 2.99995 7.00001 2.99995C9.60001 2.99995 11.6667 5.06662 11.6667 7.66662C11.6667 10.2666 9.60001 12.3333 7.00001 12.3333Z" fill="white"/>
</svg>
